<?xml version="1.0" encoding="UTF-8"?>
<svg id="Layer_1" data-name="Layer 1" xmlns="http://www.w3.org/2000/svg" viewBox="0 0 983.06 1013.69">
  <defs>
    <style>
      .cls-1 {
        fill: #edf1f6;
        font-family: Diether-Bold, Diether;
        font-size: 194.31px;
        font-weight: 700;
      }

      .cls-1, .cls-2 {
        isolation: isolate;
      }
    </style>
  </defs>
  <g class="cls-2">
    <text class="cls-1" transform="translate(484.04 162.33) rotate(10.63) scale(.96 1)"><tspan x="0" y="0">2</tspan></text>
  </g>
  <g class="cls-2">
    <text class="cls-1" transform="translate(592.25 179.38) rotate(30.25) scale(.96 1)"><tspan x="0" y="0">4</tspan></text>
  </g>
  <g class="cls-2">
    <text class="cls-1" transform="translate(729.62 268.49) rotate(59.68) scale(.96 1)"><tspan x="0" y="0">S</tspan></text>
  </g>
  <g class="cls-2">
    <text class="cls-1" transform="translate(796.95 378.86) rotate(80.63) scale(.96 1)"><tspan x="0" y="0">P</tspan></text>
  </g>
  <g class="cls-2">
    <text class="cls-1" transform="translate(821.21 502.66) rotate(101.48) scale(.96 1)"><tspan x="0" y="0">R</tspan></text>
  </g>
  <g class="cls-2">
    <text class="cls-1" transform="translate(788.81 637.26) rotate(115.64) scale(.96 1)"><tspan x="0" y="0">I</tspan></text>
  </g>
  <g class="cls-2">
    <text class="cls-1" transform="translate(783.08 667.92) rotate(129.33) scale(.96 1)"><tspan x="0" y="0">N</tspan></text>
  </g>
  <g class="cls-2">
    <text class="cls-1" transform="translate(702.03 772.86) rotate(152.2) scale(.96 1)"><tspan x="0" y="0">G</tspan></text>
  </g>
  <g class="cls-2">
    <text class="cls-1" transform="translate(533.75 849.21) rotate(-174.79) scale(.96 1)"><tspan x="0" y="0">B</tspan></text>
  </g>
  <g class="cls-2">
    <text class="cls-1" transform="translate(403.54 832.5) rotate(-159.71) scale(.96 1)"><tspan x="0" y="0">I</tspan></text>
  </g>
  <g class="cls-2">
    <text class="cls-1" transform="translate(373.11 826.48) rotate(-148.08) scale(.96 1)"><tspan x="0" y="0">L</tspan></text>
  </g>
  <g class="cls-2">
    <text class="cls-1" transform="translate(288.77 776.5) rotate(-131.13) scale(.96 1)"><tspan x="0" y="0">L</tspan></text>
  </g>
  <g class="cls-2">
    <text class="cls-1" transform="translate(220.62 706.21) rotate(-112.3) scale(.96 1)"><tspan x="0" y="0">B</tspan></text>
  </g>
  <g class="cls-2">
    <text class="cls-1" transform="translate(169.59 590.5) rotate(-91.76) scale(.96 1)"><tspan x="0" y="0">O</tspan></text>
  </g>
  <g class="cls-2">
    <text class="cls-1" transform="translate(162.23 464.4) rotate(-71.69) scale(.96 1)"><tspan x="0" y="0">A</tspan></text>
  </g>
  <g class="cls-2">
    <text class="cls-1" transform="translate(198.02 343.09) rotate(-50.2) scale(.96 1)"><tspan x="0" y="0">R</tspan></text>
  </g>
  <g class="cls-2">
    <text class="cls-1" transform="translate(282.46 236.61) rotate(-26.94) scale(.96 1)"><tspan x="0" y="0">D</tspan></text>
  </g>
</svg>