<?xml version="1.0" encoding="UTF-8"?>
<svg id="Layer_1" data-name="Layer 1" xmlns="http://www.w3.org/2000/svg" viewBox="0 0 976.27 1005.26">
  <defs>
    <style>
      .cls-1 {
        fill: #fa9ebc;
        font-family: Diether-Heavy, Diether;
        font-size: 194.31px;
        font-weight: 800;
      }
    </style>
  </defs>
  <text class="cls-1" transform="translate(481.99 158.53) rotate(10.63) scale(.96 1)"><tspan x="0" y="0">2</tspan></text>
  <text class="cls-1" transform="translate(590.2 175.58) rotate(30.25) scale(.96 1)"><tspan x="0" y="0">4</tspan></text>
  <text class="cls-1" transform="translate(688.02 235.72) rotate(44.54) scale(.96 1)"><tspan x="0" y="0"> </tspan></text>
  <text class="cls-1" transform="translate(727.57 264.69) rotate(59.68) scale(.96 1)"><tspan x="0" y="0">S</tspan></text>
  <text class="cls-1" transform="translate(794.9 375.06) rotate(80.63) scale(.96 1)"><tspan x="0" y="0">P</tspan></text>
  <text class="cls-1" transform="translate(819.16 498.86) rotate(101.48) scale(.96 1)"><tspan x="0" y="0">R</tspan></text>
  <text class="cls-1" transform="translate(786.76 633.46) rotate(115.64) scale(.96 1)"><tspan x="0" y="0">I</tspan></text>
  <text class="cls-1" transform="translate(781.03 664.12) rotate(129.33) scale(.96 1)"><tspan x="0" y="0">N</tspan></text>
  <text class="cls-1" transform="translate(699.98 769.06) rotate(152.2) scale(.96 1)"><tspan x="0" y="0">G</tspan></text>
  <text class="cls-1" transform="translate(577.45 828.6) rotate(168.96) scale(.96 1)"><tspan x="0" y="0"> </tspan></text>
  <text class="cls-1" transform="translate(531.7 845.41) rotate(-174.79) scale(.96 1)"><tspan x="0" y="0">B</tspan></text>
  <text class="cls-1" transform="translate(401.49 828.7) rotate(-159.71) scale(.96 1)"><tspan x="0" y="0">I</tspan></text>
  <text class="cls-1" transform="translate(371.06 822.68) rotate(-148.08) scale(.96 1)"><tspan x="0" y="0">L</tspan></text>
  <text class="cls-1" transform="translate(286.72 772.7) rotate(-131.13) scale(.96 1)"><tspan x="0" y="0">L</tspan></text>
  <text class="cls-1" transform="translate(218.57 702.41) rotate(-112.3) scale(.96 1)"><tspan x="0" y="0">B</tspan></text>
  <text class="cls-1" transform="translate(167.54 586.7) rotate(-91.76) scale(.96 1)"><tspan x="0" y="0">O</tspan></text>
  <text class="cls-1" transform="translate(160.18 460.6) rotate(-71.69) scale(.96 1)"><tspan x="0" y="0">A</tspan></text>
  <text class="cls-1" transform="translate(195.97 339.29) rotate(-50.2) scale(.96 1)"><tspan x="0" y="0">R</tspan></text>
  <text class="cls-1" transform="translate(280.41 232.81) rotate(-26.94) scale(.96 1)"><tspan x="0" y="0">D</tspan></text>
</svg>