<svg xmlns="http://www.w3.org/2000/svg" width="1856.82" height="1172.816" viewBox="0 0 1856.82 1172.816">
  <g id="패스_4" data-name="패스 4" transform="translate(159.142 -36.25) rotate(20)" fill="none">
    <path d="M905.4,38.813c500.037,21.436,909.288,138.847,914.087,262.244s-396.67,206.054-896.707,184.618S13.49,346.829,8.69,223.431,405.36,17.377,905.4,38.813Z" stroke="none"/>
    <path d="M 749.4869384765625 37.4296875 C 661.8914794921875 37.4296875 577.3704833984375 40.73468017578125 498.2723388671875 47.25308227539062 C 420.9539794921875 53.62466430664062 349.8275146484375 62.97650146484375 286.869140625 75.04852294921875 C 224.093505859375 87.0858154296875 170.4732666015625 101.6276245117188 127.49755859375 118.2703552246094 C 83.8748779296875 135.1635437011719 51.9244384765625 153.9510498046875 32.53369140625 174.110595703125 C 28.7786865234375 178.0144348144531 25.4605712890625 182.0169372558594 22.6712646484375 186.0067138671875 C 19.872802734375 190.0092163085938 17.5318603515625 194.1062622070312 15.7135009765625 198.1839904785156 C 13.8880615234375 202.2776184082031 12.5394287109375 206.4635314941406 11.705078125 210.6253662109375 C 10.8651123046875 214.8151245117188 10.523193359375 219.0976257324219 10.688720703125 223.3535461425781 C 10.975341796875 230.7214965820312 12.789794921875 238.2285461425781 16.0821533203125 245.6667175292969 C 19.3519287109375 253.0542297363281 24.15869140625 260.5562744140625 30.36865234375 267.9642333984375 C 36.5357666015625 275.3205871582031 44.2303466796875 282.7562866210938 53.2393798828125 290.0646667480469 C 62.1771240234375 297.3155822753906 72.61669921875 304.6098937988281 84.26806640625 311.745361328125 C 107.379638671875 325.8994445800781 135.8616943359375 339.8221740722656 168.9232177734375 353.1271667480469 C 201.708984375 366.321044921875 239.2728271484375 379.0185546875 280.5714111328125 390.86669921875 C 321.888427734375 402.7201232910156 367.27978515625 413.8201293945312 415.485107421875 423.8583068847656 C 464.162353515625 433.9946899414062 516.13623046875 443.13671875 569.9635009765625 451.0305786132812 C 624.791015625 459.071044921875 682.1064453125 465.8983154296875 740.317626953125 471.3226318359375 C 800.0491943359375 476.8887634277344 861.4664306640625 481.0453491210938 922.8632202148438 483.6773986816406 C 975.2041625976562 485.9212646484375 1027.631225585938 487.0589904785156 1078.68798828125 487.0589904785156 C 1166.283447265625 487.0589904785156 1250.804443359375 483.7539978027344 1329.902587890625 477.235595703125 C 1407.220947265625 470.8639831542969 1478.347412109375 461.5123901367188 1541.305786132812 449.4401245117188 C 1604.081176757812 437.403076171875 1657.701416015625 422.8610229492188 1700.677124023438 406.2185363769531 C 1744.2998046875 389.3251342773438 1776.250244140625 370.537841796875 1795.640991210938 350.3782958984375 C 1799.39599609375 346.4744262695312 1802.714111328125 342.471923828125 1805.503662109375 338.482177734375 C 1808.301879882812 334.4796752929688 1810.642822265625 330.3826293945312 1812.461181640625 326.3049011230469 C 1814.28662109375 322.2112426757812 1815.63525390625 318.0253601074219 1816.469604492188 313.863525390625 C 1817.3095703125 309.6737670898438 1817.651489257812 305.3912658691406 1817.485961914062 301.1353759765625 C 1817.199340820312 293.7676391601562 1815.384887695312 286.2603759765625 1812.092529296875 278.8221740722656 C 1808.82275390625 271.4346923828125 1804.015991210938 263.9326171875 1797.805786132812 256.524658203125 C 1791.638916015625 249.1683044433594 1783.944213867188 241.7326354980469 1774.935302734375 234.4242248535156 C 1765.997314453125 227.1733093261719 1755.557739257812 219.8789978027344 1743.906616210938 212.7435302734375 C 1720.795043945312 198.5894470214844 1692.312744140625 184.6667175292969 1659.25146484375 171.3617248535156 C 1626.465576171875 158.1678466796875 1588.901611328125 145.4703674316406 1547.603271484375 133.6221618652344 C 1506.2861328125 121.7685241699219 1460.894653320312 110.6685485839844 1412.689575195312 100.6303405761719 C 1364.012329101562 90.49398803710938 1312.038330078125 81.35195922851562 1258.211181640625 73.45806884765625 C 1203.3837890625 65.41763305664062 1146.068237304688 58.59036254882812 1087.857177734375 53.16604614257812 C 1028.12548828125 47.59991455078125 966.708251953125 43.44329833984375 905.3114624023438 40.81124877929688 C 852.9705200195312 38.56741333007812 800.543701171875 37.4296875 749.4869384765625 37.4296875 M 749.4869384765625 35.42971801757812 C 800.1087646484375 35.42971801757812 852.1705322265625 36.53134155273438 905.3970947265625 38.81307983398438 C 1405.434204101562 60.24899291992188 1814.684814453125 177.659912109375 1819.484375 301.0576171875 C 1823.773071289062 411.3202514648438 1503.632690429688 489.0589599609375 1078.68798828125 489.0589599609375 C 1028.066162109375 489.0589599609375 976.004150390625 487.9573364257812 922.777587890625 485.6755981445312 C 422.740478515625 464.2396850585938 13.4896240234375 346.8289794921875 8.6903076171875 223.4312744140625 C 4.401611328125 113.1686401367188 324.5423583984375 35.42971801757812 749.4869384765625 35.42971801757812 Z" stroke="none" fill="#f7f2eb"/>
  </g>
  <text id="_2" data-name="2" transform="translate(1417.41 1079.816)" fill="#f7f2eb" font-size="180" font-family="LaObrige-PersonalUse, La Obrige"><tspan x="0" y="0">2</tspan></text>
</svg>
